<svg width="58" height="58" viewBox="0 0 58 58" fill="none" xmlns="http://www.w3.org/2000/svg">
<path d="M47.7094 3.39844C46.4718 3.39844 45.3116 3.7325 44.311 4.31284V1.69922C44.311 0.760797 43.5502 0 42.6118 0H15.4243C14.4857 0 13.7249 0.760797 13.7249 1.69922V4.33357C12.7164 3.74032 11.5429 3.39844 10.2906 3.39844C6.54279 3.39844 3.49371 6.44752 3.49371 10.1953C3.49371 13.054 4.34083 15.8161 5.94342 18.1832C8.67169 22.213 12.036 23.2587 14.8199 24.3722C16.4251 28.3697 19.6712 31.5377 23.7204 33.0377L22.4674 41.0078H22.2211C19.4103 41.0078 17.1235 43.2946 17.1235 46.1055V54.6016H15.4243C14.4858 54.6016 13.725 55.3624 13.725 56.3008C13.725 57.2392 14.4858 58 15.4243 58H42.6118C43.5502 58 44.311 57.2392 44.311 56.3008C44.311 55.3624 43.5502 54.6016 42.6118 54.6016H40.9126V46.1055C40.9126 43.2946 38.6257 41.0078 35.8149 41.0078H35.5686L34.3157 33.0378C38.3709 31.5356 41.6206 28.3606 43.2234 24.355C45.8532 23.3031 49.3005 22.2543 52.0567 18.1832C53.6593 15.8161 54.5064 13.0539 54.5064 10.1953C54.5063 6.44752 51.4572 3.39844 47.7094 3.39844ZM13.7124 20.2691C9.56921 18.6118 6.89215 14.6577 6.89215 10.1953C6.89215 8.32141 8.41669 6.79688 10.2906 6.79688C12.1645 6.79688 13.689 8.32141 13.689 10.1953C13.689 10.3148 13.7016 10.4313 13.725 10.5438V18.6914C13.725 19.2375 13.7544 19.7769 13.8106 20.3084L13.7124 20.2691ZM37.5141 54.6016H20.5219V51.2031H37.5141V54.6016ZM35.8149 44.4062C36.7518 44.4062 37.5141 45.1685 37.5141 46.1055V47.8047H20.5219V46.1055C20.5219 45.1685 21.2842 44.4062 22.2211 44.4062C23.143 44.4062 33.6529 44.4062 35.8149 44.4062ZM25.9075 41.0078L27.032 33.8556C27.6822 33.9403 28.345 33.9844 29.018 33.9844C29.691 33.9844 30.3538 33.9402 31.0041 33.8556L32.1285 41.0078H25.9075ZM40.9126 18.6914C40.9126 25.2501 35.5767 30.5859 29.018 30.5859C22.4594 30.5859 17.1235 25.2501 17.1235 18.6914V10.1953H40.9126V18.6914ZM40.9126 6.79688H17.1235V3.39844H40.9126V6.79688ZM44.2875 20.2691L44.2272 20.2932C44.2822 19.7667 44.3109 19.2323 44.3109 18.6914V10.1953C44.311 8.32141 45.8355 6.79688 47.7094 6.79688C49.5833 6.79688 51.1079 8.32141 51.1079 10.1953C51.1079 14.6577 48.4308 18.6119 44.2875 20.2691Z" fill="white"/>
</svg>
