<svg width="54" height="54" viewBox="0 0 54 54" fill="none" xmlns="http://www.w3.org/2000/svg">
<path d="M49.8131 27.9918V3.40172C49.8131 2.52445 49.1019 1.81323 48.2247 1.81323H5.6656C4.78833 1.81323 4.07711 2.52445 4.07711 3.40172V29.9521C3.31082 30.0637 2.56169 30.3612 1.89897 30.8532C-0.190214 32.3346 -0.68434 35.6499 1.06565 37.6945L8.22053 46.3684C12.6495 51.5518 17.3542 52.1869 24.3485 52.1869C30.3505 52.1869 33.0339 52.2134 38.2648 51.0215L43.3584 49.8032C44.1843 50.9566 45.4954 51.7037 46.9694 51.7037H49.4786C51.9717 51.7037 54 49.567 54 46.9406V32.7406C54.0001 30.2328 52.1504 28.1729 49.8131 27.9918ZM42.6732 31.2594L40.5567 30.1844C37.0767 28.4279 33.0533 28.3628 29.5184 30.0063C28.5539 30.3856 26.4505 31.6583 25.3594 31.6158H18.0151C15.5789 31.6158 13.5969 33.5977 13.5969 36.0339V37.1923C13.5833 37.1779 13.569 37.1642 13.5555 37.1496L8.31086 31.4568C7.99348 31.1123 7.63692 30.8241 7.2542 30.5928V14.8329H20.2537V20.6559C20.2537 21.5332 20.9649 22.2444 21.8422 22.2444H31.8656C32.7429 22.2444 33.4541 21.5332 33.4541 20.6559V14.8329H46.6363V27.9917C44.7803 28.1351 43.2327 29.4628 42.6732 31.2594ZM23.4305 14.8329H30.277V19.0674H23.4305V14.8329ZM46.6362 11.6559H33.4541V4.99021H46.6363V11.6559H46.6362ZM30.2771 4.99021V11.6561H23.4306V4.99021H30.2771ZM20.2536 4.99021V11.6561H7.25409V4.99021H20.2536ZM37.5275 47.9311C32.6954 49.0379 29.7851 48.9931 24.4054 48.9931C17.8397 48.9931 14.6673 48.887 10.6715 44.3467L3.51658 35.6728C2.27205 34.0522 4.52623 32.1391 5.9743 33.6092L11.219 39.3021C12.6051 40.7647 14.3493 41.5697 16.4992 41.617H31.04C31.9173 41.617 32.6285 40.9058 32.6285 40.0285C32.6285 39.1512 31.9173 38.44 31.04 38.44H16.7738V36.0337C16.7738 35.3493 17.3305 34.7925 18.0149 34.7925H25.3593C27.0139 34.911 29.402 33.5295 30.8577 32.887C33.5052 31.656 36.5186 31.7047 39.1215 33.0185L42.4483 34.7082V46.7541L37.5275 47.9311ZM50.8231 46.9405C50.8231 47.8151 50.22 48.5266 49.4787 48.5266H46.9695C46.2282 48.5266 45.6252 47.8151 45.6252 46.9405V32.7406C45.6252 31.866 46.2283 31.1544 46.9695 31.1544H49.4787C50.22 31.1544 50.8231 31.8659 50.8231 32.7406V46.9405Z" fill="white"/>
</svg>
