<svg width="58" height="58" viewBox="0 0 58 58" fill="none" xmlns="http://www.w3.org/2000/svg">
<g clip-path="url(#clip0_0_86)">
<path d="M52.8704 23.1643C52.4892 10.3266 41.9283 0.000244141 28.9999 0.000244141C16.0715 0.000244141 5.5106 10.3266 5.12928 23.1643L3.41168 24.8819V36.5304L5.11756 38.2362V46.1728C5.11756 50.8132 8.8928 54.5885 13.5333 54.5885H15.6463C16.3505 56.574 18.2466 58.0002 20.4705 58.0002H23.8823C26.1077 58.0002 28.0048 56.572 28.7079 54.5844C28.8053 54.5861 28.903 54.5885 28.9999 54.5885C37.238 54.5885 44.1309 48.7184 45.7157 40.9414H50.1771L54.5882 36.5304V24.8819L52.8704 23.1643ZM28.9999 3.41201C39.125 3.41201 47.5555 10.8018 49.1846 20.4708H45.7157C44.1309 12.6938 37.238 6.82377 28.9999 6.82377C20.7619 6.82377 13.869 12.6938 12.2841 20.4708H8.81524C10.4444 10.8018 18.8748 3.41201 28.9999 3.41201ZM42.2152 20.4708C36.7007 20.4543 32.8056 20.7902 29.5942 16.0958L28.0348 13.8164L26.6947 16.2313C24.742 19.7498 22.1124 20.4708 18.7646 20.4708H15.7847C17.3035 14.5915 22.6526 10.2355 28.9999 10.2355C35.3473 10.2355 40.6964 14.5915 42.2152 20.4708ZM11.9411 37.5297H9.23591L6.82345 35.1172V26.2951L9.23591 23.8826H11.9411V37.5297ZM8.52933 46.1728V40.9414H12.2808C12.923 44.1229 14.4595 47.0432 16.7359 49.3888C16.2587 49.8987 15.8844 50.5054 15.6463 51.1767H13.5333C10.774 51.1767 8.52933 48.932 8.52933 46.1728ZM23.8823 54.5885H20.4705C19.5298 54.5885 18.7646 53.8233 18.7646 52.8826C18.7646 51.942 19.5298 51.1767 20.4705 51.1767H23.8823C24.8229 51.1767 25.5882 51.942 25.5882 52.8826C25.5882 53.8233 24.8229 54.5885 23.8823 54.5885ZM42.647 37.5297C42.647 45.0546 36.5249 51.1767 28.9999 51.1767C28.9021 51.1767 28.8035 51.1748 28.705 51.1725C27.9997 49.1891 26.1046 47.7649 23.8823 47.7649C20.3795 47.7727 20.4354 47.7474 19.9988 47.7876C17.0371 45.1917 15.3529 41.4942 15.3529 37.5297V23.8826H18.7646C21.7837 23.8826 25.4604 23.3848 28.3065 19.921C32.0618 23.8562 36.6508 23.8826 40.7703 23.8826H42.647V37.5297ZM51.1764 35.1172L48.7639 37.5297H46.0587V23.8826H48.7639L51.1764 26.2951V35.1172Z" fill="white"/>
</g>
<defs>
<clipPath id="clip0_0_86">
<rect width="58" height="58" fill="white" transform="translate(0 0.000244141)"/>
</clipPath>
</defs>
</svg>
